<?xml version="1.0" encoding="utf-8"?>
<!-- Generator: Adobe Illustrator 23.1.0, SVG Export Plug-In . SVG Version: 6.00 Build 0)  -->
<svg version="1.1" id="Capa_1" xmlns="http://www.w3.org/2000/svg" xmlns:xlink="http://www.w3.org/1999/xlink" x="0px" y="0px"
	 viewBox="0 0 97.1 97.1" style="enable-background:new 0 0 97.1 97.1;" xml:space="preserve">
<style type="text/css">
	.st0{fill:url(#SVGID_1_);}
</style>
<g>
	
		<linearGradient id="SVGID_1_" gradientUnits="userSpaceOnUse" x1="0" y1="51.4116" x2="97.136" y2="51.4116" gradientTransform="matrix(1 0 0 -1 0 100)">
		<stop  offset="0" style="stop-color:#D53A9D"/>
		<stop  offset="1" style="stop-color:#743AD5"/>
	</linearGradient>
	<path class="st0" d="M97.1,26c-0.4,9.5-7,22.4-19.8,38.8C64,82,52.9,90.6,43.7,90.6c-5.7,0-10.4-5.2-14.4-15.7
		c-2.6-9.6-5.2-19.2-7.8-28.7c-2.9-10.5-6-15.7-9.4-15.7c-0.7,0-3.3,1.5-7.6,4.6l-4.5-6c4.8-4.2,9.5-8.4,14.2-12.6
		c6.4-5.5,11.2-8.4,14.4-8.7c7.6-0.7,12.2,4.4,14,15.5c1.9,11.9,3.2,19.4,3.9,22.3c2.2,9.9,4.6,14.8,7.2,14.8c2,0,5.1-3.2,9.2-9.6
		s6.2-11.3,6.5-14.7c0.6-5.5-1.6-8.3-6.5-8.3c-2.3,0-4.7,0.5-7.2,1.6C60.4,13.7,69.5,6.1,82.9,6.6C92.9,6.8,97.6,13.3,97.1,26z"/>
</g>
</svg>
