<?xml version="1.0" encoding="utf-8"?>
<!-- Generator: Adobe Illustrator 23.1.0, SVG Export Plug-In . SVG Version: 6.00 Build 0)  -->
<svg version="1.1" id="Слой_1" xmlns="http://www.w3.org/2000/svg" xmlns:xlink="http://www.w3.org/1999/xlink" x="0px" y="0px"
	 viewBox="0 0 2095 236" style="enable-background:new 0 0 2095 236;" xml:space="preserve">
<style type="text/css">
	.st0{fill:#FFFFFF;}
</style>
<g transform="translate(0.000000,236.000000) scale(0.100000,-0.100000)">
	<path class="st0" d="M9687,2327c-2-7-5-57-6-111c-1-55-4-103-7-107c-3-5-29-9-59-9h-54l-3-57c-3-52-5-58-28-63c-24-5-25-11-30-85
		s-7-80-27-83l-23-3v-655c0-436-3-654-10-654c-6,0-42,23-80,51l-70,51v339c0,329,1,339,19,339c37,0,31,18-18,54c-48,34-50,37-53,88
		c-3,47-6,53-27,56c-17,3-30-4-42-19l-17-23l-45,32c-25,17-52,32-61,32c-8,0-61-34-118-76c-57-41-118-85-135-96c-38-23-43-45-10-50
		c22-3,22-6,25-159c2-117-1-159-10-166c-7-5-74-29-148-52c-74-24-173-55-220-71c-47-15-117-37-156-49c-62-19-75-27-98-61
		c-32-48-32-50-2-50s36-16,36-95c0-76-11-87-77-83l-48,3l-3,182l-2,182l32,3c18,2,33,5,33,8s-63,111-139,240
		c-162,272-166,282-144,307c15,17,15,20-4,43l-20,24l-19-24c-21-28-24-40-9-40c6,0,10-13,10-30c0-21-44-103-140-265
		c-77-129-143-241-146-250c-5-12,2-15,30-15h36v-74c0-61-3-75-17-81c-20-8-244-65-256-65c-4,0-7,21-5,48c3,47,3,47,43,52l40,5
		l-80,60c-44,33-83,64-87,70c-4,5-8,38-8,72v62l-40-1c-41,0-55-10-61-41c-3-15-14-11-66,28c-35,25-67,45-73,45
		c-12,0-383-265-401-286c-9-12-6-14,19-14c51,0,65-23,60-101c-2-37-7-71-11-76c-4-4-42-6-83-4c-107,4-124-2-157-56
		c-28-45-30-77-5-68c32,12,39-10,36-111l-3-99l-67-3c-43-2-68,1-68,8c-3,136,1,443,5,450c3,6,19,10,36,10c39,0,36,10-9,38
		c-79,50-87,60-92,126l-5,61h-35c-27,0-35-4-40-23c-3-13-9-24-14-24c-4,0-30,16-58,36c-27,21-58,36-68,34c-21-3-339-228-340-240
		c0-4,15-8,33-10l32-3l3-90c5-142,11-135-117-135c-90,0-110,3-115,16c-3,9-6,56-6,105c0,86,1,90,25,99c14,5,25,13,25,18
		c0,17-42,53-56,48c-8-3-20,3-26,14c-9,15-24,20-53,20c-32,0-46,6-68,30c-36,38-67,38-105,0c-24-23-39-30-70-30c-26,0-42-5-46-15
		c-3-8-15-15-26-15c-23,0-60-33-60-54c0-8,10-16,23-18c21-3,22-8,25-97c3-106-4-121-54-121h-34V355c0-102-1-106-24-116
		c-14-7-36-9-51-5l-25,7l2,162c3,159,3,162,26,165c35,5,26,16-30,42c-29,13-55,25-58,27c-3,3-7,32-10,66c-5,61-5,62-35,62
		c-27,0-30-3-33-38c-2-23-8-37-17-37c-7,0-63,25-124,55l-111,55l-215-107c-118-59-215-110-215-113s10-10,22-15c21-9,23-16,23-99v-90
		l-40-20c-33-17-41-28-45-56c-5-35-5-35-63-38c-67-3-85,6-89,51c-3,28-9,34-53,50c-73,27-76,32-73,101c3,58,4,61,31,64
		c15,2,27,7,27,12c0,4-51,44-112,88c-62,45-130,93-150,108l-37,26l-45-33c-43-30-47-31-59-15c-9,12-23,17-42,14c-28-3-30-6-33-50
		c-3-45-6-50-57-85c-59-41-69-63-29-63c22,0,25-4,22-27c-3-26-7-28-56-31c-41-2-59,2-82,18c-28,20-30,26-30,81v59h-40
		c-36,0-40-2-40-25c0-14-4-25-9-25s-33,18-62,40c-30,22-59,40-66,40c-8,0-62-35-121-78s-112-81-118-85c-11-7-110,27-131,45
		c-7,6-13,25-13,42c0,23-9,41-30,61c-22,21-30,38-30,63c0,22-4,32-12,30c-7-3-13-19-13-36c0-21-10-41-32-64c-23-23-33-44-33-64
		c0-29-4-32-98-69c-53-21-99-40-102-42c-3-3-7-53-10-111c-5-99-7-107-25-107c-16,0-21,8-23,39c-2,28-9,40-23,43c-15,4-19,14-19,53
		v48l-61,4c-55,3-89-9-73-25c3-3,1-15-6-26c-9-18-20-21-70-21c-40,0-64,5-74,16c-19,18-19,20-6,43c6,13,5,24-5,37c-8,11-15,29-15,41
		c0,17-6,22-22,22c-13-1-30,1-38,5c-9,4-33-9-64-34l-48-40l-48,40c-26,22-50,40-53,40s-27-18-52-40s-50-40-54-40s-16,9-27,21
		c-10,12-31,30-45,40l-27,19l-48-40c-27-22-51-40-55-40c-3,0-24,16-47,35c-37,32-45,35-81,29s-41-10-41-32c0-14-10-36-21-49
		c-18-18-20-25-10-37c13-16,18-186,6-206c-3-5-38-10-76-10h-70l3,87c3,84,4,87,28,93c23,6,22,8-33,48c-52,39-57,46-57,82
		c0,30-4,40-21,45c-13,4-27,1-39-10c-17-15-21-15-59,10c-22,15-45,24-52,19c-38-23-245-177-247-184c-2-5,7-10,20-12
		c22-3,23-7,26-114c3-122,0-128-58-114c-20,5-26,13-28,44c-2,26,2,44,14,57c11,12,14,23,8,28c-18,17-138,101-144,101
		c-3,0-37-23-75-50l-70-50l3-84l4-84l-29-4c-25-3-28-7-31-45L9,0h10461h10461l-3,43c-3,35-7,43-26,45c-22,3-23,7-20,70l3,67l33,3
		c17,2,32,8,32,13s-21,24-47,42c-98,68-102,73-105,135l-3,57l-38,3c-32,3-39,0-44-17c-7-29-23-26-76,14c-25,19-53,35-62,35
		c-16,0-248-161-260-180c-3-6-13-10-21-10c-12,0-14,12-12,58c3,56,3,57,36,60c45,4,40,21-18,60c-91,62-100,74-100,137v55h-45
		c-38,0-45-3-45-20c0-29-14-25-74,20c-29,22-56,40-59,40c-4,0-81-54-172-121c-99-72-171-119-180-115c-8,3-55,35-104,71
		s-94,65-100,65c-7,0-36-18-65-40c-60-46-66-47-66-20c0,22-36,36-69,25c-18-5-21-15-21-60c0-46-4-56-27-75c-22-17-38-20-97-18
		c-69,3-71,4-74,31l-3,27h-94c-101,0-105,2-105,61c0,22-6,32-26,39c-23,9-25,14-22,57c3,47,4,48,37,48c19,0,36,5,37,10
		c3,8-52,50-140,107c-6,4-13,36-16,70l-5,63l-43,3c-37,3-44,0-49-17c-6-22-27-28-38-11c-3,5-26,24-51,40l-44,31l-128-92
		c-70-51-158-116-196-143l-69-51l39-5l39-5V455V205h-70h-70v110v110h28c15-1,27,5,27,11c0,9-263,208-326,246c-5,4-36-13-69-37
		c-60-45-75-48-75-14c0,17-6,20-42,17l-43-3l-3-62c-2-50-7-65-22-73c-12-6-74-9-152-8l-133,3l-3,38c-2,27,1,39,12,42
		c53,17,53,15,16,46c-95,80-93,78-87,106c3,15,3,33,0,40c-7,19-64,16-78-4c-11-15-16-14-51,15c-21,18-43,32-48,32
		c-11,0-270-186-286-205c-10-12-9-16,1-19c8-2,22-7,32-10c11-3,17-16,17-34c0-34-16-52-46-52c-17,0-23-7-26-27c-3-27-5-28-58-28h-55
		l-5,65l-5,65l-52-3c-87-6-94-1-91,71c3,56,5,62,26,65c26,4,27,10,6,40c-8,12-26,22-38,22c-13,0-26,7-30,15c-3,10-19,15-46,15
		c-33,0-48,6-72,30c-38,39-72,39-106,0c-22-25-34-30-74-30c-36,0-48-4-48-15c0-9-9-15-24-15c-14,0-32-10-40-22c-21-30-20-36,7-40
		c21-3,22-7,22-113V485l-95-3c-149-5-141-11-138,116l3,107l28,3c16,2,27,8,24,15c-6,19-310,237-330,237c-10,0-42-18-71-39
		c-55-41-66-42-66-9c0,15-8,18-45,18h-45v-58c0-80-16-94-101-90l-64,3v115v115l28,3c15,2,27,7,27,11c0,12-278,211-293,211
		c-8,0-36-16-63-35c-48-35-49-35-54-13c-5,18-13,23-40,23h-35l-5-55c-5-50-8-57-47-85c-47-34-54-52-20-57c22-3,22-3,22-197V626
		l-125-92l-125-93h-77c-76-1-76-1-98-36c-22-36-20-55,6-55c12,0,14-12,12-63l-3-62l-62-3l-63-3v436c0,428,0,435,20,435
		c11,0,20,4,20,9c0,10-93,68-201,125l-45,24l-109-64c-60-35-113-64-117-64s-8-7-8-15s9-15,20-15c20,0,20-5,18-143l-3-142h-110h-110
		l-3,213c-1,139,1,212,8,212c5,0,10,7,10,15c0,13-71,59-185,121l-39,22l-44-22c-41-20-44-20-56-3c-20,26-46,22-46-7c0-38-9-54-46-77
		c-36-22-44-43-19-53c13-5,15-44,13-298l-3-293l-205-5l-205-5l-9-27c-8-21-6-32,7-46c18-20,24-125,8-150c-11-18-110-64-122-56
		c-5,3-9,246-9,573v569l25,16c41,27,31,86-15,86c-19,0-29,6-33,20c-5,19-14,20-156,20c-126,0-151-2-151-15c0-24-39-37-104-33l-61,3
		v-40c0-34,3-40,23-43l22-3v-255c0-181-3-254-11-254c-6,0-53,34-105,76l-93,76l-96-77c-53-42-99-75-101-72c-3,2-5,85-5,183
		c-1,173,0,179,21,188c15,7,20,16,16,30c-3,12-6,26-6,32s-13,14-30,18c-18,3-30,12-30,21c0,10-10,15-34,15c-42,0-54,14-58,70
		c-3,43-5,45-33,45c-29,0-30-2-33-52c-3-46-6-54-27-59c-29-7-45,1-156,86c-50,39-94,70-97,70c-2,0-52-36-110-80
		c-61-46-115-80-128-80c-30,0-44,27-41,77c2,37,1,38-33,38h-35l-3-53c-3-57-20-75-47-52c-13,11-15,34-13,124c3,107,4,111,26,114
		c20,3,22,9,22,63v59h-31c-22,0-32,5-36,20c-5,19-14,20-158,20s-153-1-158-20c-4-15-14-20-36-20c-31,0-31,0-31-56c0-48,3-57,20-61
		c20-5,20-12,18-422l-3-416l-27-3c-19-2-30,3-37,17c-9,16-23,21-74,23c-59,3-62,4-65,31c-3,26-5,27-63,27h-59v-34c0-51-9-66-40-66
		c-16,0-30,7-34,16c-3,9-6,216-6,460c0,428-1,444-19,444c-30,0-43,25-41,82c3,82,2,86-22,90c-20,3-23,10-26,60l-3,57l-57,3l-57,3
		l-2,35c-12,163-16,200-23,200C9696,2340,9690,2334,9687,2327z"/>
</g>
</svg>
