<?xml version="1.0" standalone="no"?>
<!DOCTYPE svg PUBLIC "-//W3C//DTD SVG 20010904//EN"
 "http://www.w3.org/TR/2001/REC-SVG-20010904/DTD/svg10.dtd">
<svg version="1.0" xmlns="http://www.w3.org/2000/svg"
 width="2095.000000pt" height="236.000000pt" viewBox="0 0 2095.000000 236.000000"
 preserveAspectRatio="xMidYMid meet">

<g transform="translate(0.000000,236.000000) scale(0.100000,-0.100000)"
fill="#000000" stroke="none">
<path d="M9687 2327 c-2 -7 -5 -57 -6 -111 -1 -55 -4 -103 -7 -107 -3 -5 -29
-9 -59 -9 l-54 0 -3 -57 c-3 -52 -5 -58 -28 -63 -24 -5 -25 -11 -30 -85 -5
-74 -7 -80 -27 -83 l-23 -3 0 -655 c0 -436 -3 -654 -10 -654 -6 0 -42 23 -80
51 l-70 51 0 339 c0 329 1 339 19 339 37 0 31 18 -18 54 -48 34 -50 37 -53 88
-3 47 -6 53 -27 56 -17 3 -30 -4 -42 -19 l-17 -23 -45 32 c-25 17 -52 32 -61
32 -8 0 -61 -34 -118 -76 -57 -41 -118 -85 -135 -96 -38 -23 -43 -45 -10 -50
22 -3 22 -6 25 -159 2 -117 -1 -159 -10 -166 -7 -5 -74 -29 -148 -52 -74 -24
-173 -55 -220 -71 -47 -15 -117 -37 -156 -49 -62 -19 -75 -27 -98 -61 -32 -48
-32 -50 -2 -50 30 0 36 -16 36 -95 0 -76 -11 -87 -77 -83 l-48 3 -3 182 -2
182 32 3 c18 2 33 5 33 8 0 3 -63 111 -139 240 -162 272 -166 282 -144 307 15
17 15 20 -4 43 l-20 24 -19 -24 c-21 -28 -24 -40 -9 -40 6 0 10 -13 10 -30 0
-21 -44 -103 -140 -265 -77 -129 -143 -241 -146 -250 -5 -12 2 -15 30 -15 l36
0 0 -74 c0 -61 -3 -75 -17 -81 -20 -8 -244 -65 -256 -65 -4 0 -7 21 -5 48 3
47 3 47 43 52 l40 5 -80 60 c-44 33 -83 64 -87 70 -4 5 -8 38 -8 72 l0 62 -40
-1 c-41 0 -55 -10 -61 -41 -3 -15 -14 -11 -66 28 -35 25 -67 45 -73 45 -12 0
-383 -265 -401 -286 -9 -12 -6 -14 19 -14 51 0 65 -23 60 -101 -2 -37 -7 -71
-11 -76 -4 -4 -42 -6 -83 -4 -107 4 -124 -2 -157 -56 -28 -45 -30 -77 -5 -68
32 12 39 -10 36 -111 l-3 -99 -67 -3 c-43 -2 -68 1 -68 8 -3 136 1 443 5 450
3 6 19 10 36 10 39 0 36 10 -9 38 -79 50 -87 60 -92 126 l-5 61 -35 0 c-27 0
-35 -4 -40 -23 -3 -13 -9 -24 -14 -24 -4 0 -30 16 -58 36 -27 21 -58 36 -68
34 -21 -3 -339 -228 -340 -240 0 -4 15 -8 33 -10 l32 -3 3 -90 c5 -142 11
-135 -117 -135 -90 0 -110 3 -115 16 -3 9 -6 56 -6 105 0 86 1 90 25 99 14 5
25 13 25 18 0 17 -42 53 -56 48 -8 -3 -20 3 -26 14 -9 15 -24 20 -53 20 -32 0
-46 6 -68 30 -36 38 -67 38 -105 0 -24 -23 -39 -30 -70 -30 -26 0 -42 -5 -46
-15 -3 -8 -15 -15 -26 -15 -23 0 -60 -33 -60 -54 0 -8 10 -16 23 -18 21 -3 22
-8 25 -97 3 -106 -4 -121 -54 -121 l-34 0 0 -105 c0 -102 -1 -106 -24 -116
-14 -7 -36 -9 -51 -5 l-25 7 2 162 c3 159 3 162 26 165 35 5 26 16 -30 42 -29
13 -55 25 -58 27 -3 3 -7 32 -10 66 -5 61 -5 62 -35 62 -27 0 -30 -3 -33 -38
-2 -23 -8 -37 -17 -37 -7 0 -63 25 -124 55 l-111 55 -215 -107 c-118 -59 -215
-110 -215 -113 0 -3 10 -10 22 -15 21 -9 23 -16 23 -99 l0 -90 -40 -20 c-33
-17 -41 -28 -45 -56 -5 -35 -5 -35 -63 -38 -67 -3 -85 6 -89 51 -3 28 -9 34
-53 50 -73 27 -76 32 -73 101 3 58 4 61 31 64 15 2 27 7 27 12 0 4 -51 44
-112 88 -62 45 -130 93 -150 108 l-37 26 -45 -33 c-43 -30 -47 -31 -59 -15 -9
12 -23 17 -42 14 -28 -3 -30 -6 -33 -50 -3 -45 -6 -50 -57 -85 -59 -41 -69
-63 -29 -63 22 0 25 -4 22 -27 -3 -26 -7 -28 -56 -31 -41 -2 -59 2 -82 18 -28
20 -30 26 -30 81 l0 59 -40 0 c-36 0 -40 -2 -40 -25 0 -14 -4 -25 -9 -25 -5 0
-33 18 -62 40 -30 22 -59 40 -66 40 -8 0 -62 -35 -121 -78 -59 -43 -112 -81
-118 -85 -11 -7 -110 27 -131 45 -7 6 -13 25 -13 42 0 23 -9 41 -30 61 -22 21
-30 38 -30 63 0 22 -4 32 -12 30 -7 -3 -13 -19 -13 -36 0 -21 -10 -41 -32 -64
-23 -23 -33 -44 -33 -64 0 -29 -4 -32 -98 -69 -53 -21 -99 -40 -102 -42 -3 -3
-7 -53 -10 -111 -5 -99 -7 -107 -25 -107 -16 0 -21 8 -23 39 -2 28 -9 40 -23
43 -15 4 -19 14 -19 53 l0 48 -61 4 c-55 3 -89 -9 -73 -25 3 -3 1 -15 -6 -26
-9 -18 -20 -21 -70 -21 -40 0 -64 5 -74 16 -19 18 -19 20 -6 43 6 13 5 24 -5
37 -8 11 -15 29 -15 41 0 17 -6 22 -22 22 -13 -1 -30 1 -38 5 -9 4 -33 -9 -64
-34 l-48 -40 -48 40 c-26 22 -50 40 -53 40 -3 0 -27 -18 -52 -40 -25 -22 -50
-40 -54 -40 -4 0 -16 9 -27 21 -10 12 -31 30 -45 40 l-27 19 -48 -40 c-27 -22
-51 -40 -55 -40 -3 0 -24 16 -47 35 -37 32 -45 35 -81 29 -36 -6 -41 -10 -41
-32 0 -14 -10 -36 -21 -49 -18 -18 -20 -25 -10 -37 13 -16 18 -186 6 -206 -3
-5 -38 -10 -76 -10 l-70 0 3 87 c3 84 4 87 28 93 23 6 22 8 -33 48 -52 39 -57
46 -57 82 0 30 -4 40 -21 45 -13 4 -27 1 -39 -10 -17 -15 -21 -15 -59 10 -22
15 -45 24 -52 19 -38 -23 -245 -177 -247 -184 -2 -5 7 -10 20 -12 22 -3 23 -7
26 -114 3 -122 0 -128 -58 -114 -20 5 -26 13 -28 44 -2 26 2 44 14 57 11 12
14 23 8 28 -18 17 -138 101 -144 101 -3 0 -37 -23 -75 -50 l-70 -50 3 -84 4
-84 -29 -4 c-25 -3 -28 -7 -31 -45 l-3 -43 10461 0 10461 0 -3 43 c-3 35 -7
43 -26 45 -22 3 -23 7 -20 70 l3 67 33 3 c17 2 32 8 32 13 0 5 -21 24 -47 42
-98 68 -102 73 -105 135 l-3 57 -38 3 c-32 3 -39 0 -44 -17 -7 -29 -23 -26
-76 14 -25 19 -53 35 -62 35 -16 0 -248 -161 -260 -180 -3 -6 -13 -10 -21 -10
-12 0 -14 12 -12 58 3 56 3 57 36 60 45 4 40 21 -18 60 -91 62 -100 74 -100
137 l0 55 -45 0 c-38 0 -45 -3 -45 -20 0 -29 -14 -25 -74 20 -29 22 -56 40
-59 40 -4 0 -81 -54 -172 -121 -99 -72 -171 -119 -180 -115 -8 3 -55 35 -104
71 -49 36 -94 65 -100 65 -7 0 -36 -18 -65 -40 -60 -46 -66 -47 -66 -20 0 22
-36 36 -69 25 -18 -5 -21 -15 -21 -60 0 -46 -4 -56 -27 -75 -22 -17 -38 -20
-97 -18 -69 3 -71 4 -74 31 l-3 27 -94 0 c-101 0 -105 2 -105 61 0 22 -6 32
-26 39 -23 9 -25 14 -22 57 3 47 4 48 37 48 19 0 36 5 37 10 3 8 -52 50 -140
107 -6 4 -13 36 -16 70 l-5 63 -43 3 c-37 3 -44 0 -49 -17 -6 -22 -27 -28 -38
-11 -3 5 -26 24 -51 40 l-44 31 -128 -92 c-70 -51 -158 -116 -196 -143 l-69
-51 39 -5 39 -5 0 -250 0 -250 -70 0 -70 0 0 110 0 110 28 0 c15 -1 27 5 27
11 0 9 -263 208 -326 246 -5 4 -36 -13 -69 -37 -60 -45 -75 -48 -75 -14 0 17
-6 20 -42 17 l-43 -3 -3 -62 c-2 -50 -7 -65 -22 -73 -12 -6 -74 -9 -152 -8
l-133 3 -3 38 c-2 27 1 39 12 42 53 17 53 15 16 46 -95 80 -93 78 -87 106 3
15 3 33 0 40 -7 19 -64 16 -78 -4 -11 -15 -16 -14 -51 15 -21 18 -43 32 -48
32 -11 0 -270 -186 -286 -205 -10 -12 -9 -16 1 -19 8 -2 22 -7 32 -10 11 -3
17 -16 17 -34 0 -34 -16 -52 -46 -52 -17 0 -23 -7 -26 -27 -3 -27 -5 -28 -58
-28 l-55 0 -5 65 -5 65 -52 -3 c-87 -6 -94 -1 -91 71 3 56 5 62 26 65 26 4 27
10 6 40 -8 12 -26 22 -38 22 -13 0 -26 7 -30 15 -3 10 -19 15 -46 15 -33 0
-48 6 -72 30 -38 39 -72 39 -106 0 -22 -25 -34 -30 -74 -30 -36 0 -48 -4 -48
-15 0 -9 -9 -15 -24 -15 -14 0 -32 -10 -40 -22 -21 -30 -20 -36 7 -40 21 -3
22 -7 22 -113 l0 -110 -95 -3 c-149 -5 -141 -11 -138 116 l3 107 28 3 c16 2
27 8 24 15 -6 19 -310 237 -330 237 -10 0 -42 -18 -71 -39 -55 -41 -66 -42
-66 -9 0 15 -8 18 -45 18 l-45 0 0 -58 c0 -80 -16 -94 -101 -90 l-64 3 0 115
0 115 28 3 c15 2 27 7 27 11 0 12 -278 211 -293 211 -8 0 -36 -16 -63 -35 -48
-35 -49 -35 -54 -13 -5 18 -13 23 -40 23 l-35 0 -5 -55 c-5 -50 -8 -57 -47
-85 -47 -34 -54 -52 -20 -57 22 -3 22 -3 22 -197 l0 -195 -125 -92 -125 -93
-77 0 c-76 -1 -76 -1 -98 -36 -22 -36 -20 -55 6 -55 12 0 14 -12 12 -63 l-3
-62 -62 -3 -63 -3 0 436 c0 428 0 435 20 435 11 0 20 4 20 9 0 10 -93 68 -201
125 l-45 24 -109 -64 c-60 -35 -113 -64 -117 -64 -4 0 -8 -7 -8 -15 0 -8 9
-15 20 -15 20 0 20 -5 18 -143 l-3 -142 -110 0 -110 0 -3 213 c-1 139 1 212 8
212 5 0 10 7 10 15 0 13 -71 59 -185 121 l-39 22 -44 -22 c-41 -20 -44 -20
-56 -3 -20 26 -46 22 -46 -7 0 -38 -9 -54 -46 -77 -36 -22 -44 -43 -19 -53 13
-5 15 -44 13 -298 l-3 -293 -205 -5 -205 -5 -9 -27 c-8 -21 -6 -32 7 -46 18
-20 24 -125 8 -150 -11 -18 -110 -64 -122 -56 -5 3 -9 246 -9 573 l0 569 25
16 c41 27 31 86 -15 86 -19 0 -29 6 -33 20 -5 19 -14 20 -156 20 -126 0 -151
-2 -151 -15 0 -24 -39 -37 -104 -33 l-61 3 0 -40 c0 -34 3 -40 23 -43 l22 -3
0 -255 c0 -181 -3 -254 -11 -254 -6 0 -53 34 -105 76 l-93 76 -96 -77 c-53
-42 -99 -75 -101 -72 -3 2 -5 85 -5 183 -1 173 0 179 21 188 15 7 20 16 16 30
-3 12 -6 26 -6 32 0 6 -13 14 -30 18 -18 3 -30 12 -30 21 0 10 -10 15 -34 15
-42 0 -54 14 -58 70 -3 43 -5 45 -33 45 -29 0 -30 -2 -33 -52 -3 -46 -6 -54
-27 -59 -29 -7 -45 1 -156 86 -50 39 -94 70 -97 70 -2 0 -52 -36 -110 -80 -61
-46 -115 -80 -128 -80 -30 0 -44 27 -41 77 2 37 1 38 -33 38 l-35 0 -3 -53
c-3 -57 -20 -75 -47 -52 -13 11 -15 34 -13 124 3 107 4 111 26 114 20 3 22 9
22 63 l0 59 -31 0 c-22 0 -32 5 -36 20 -5 19 -14 20 -158 20 -144 0 -153 -1
-158 -20 -4 -15 -14 -20 -36 -20 -31 0 -31 0 -31 -56 0 -48 3 -57 20 -61 20
-5 20 -12 18 -422 l-3 -416 -27 -3 c-19 -2 -30 3 -37 17 -9 16 -23 21 -74 23
-59 3 -62 4 -65 31 -3 26 -5 27 -63 27 l-59 0 0 -34 c0 -51 -9 -66 -40 -66
-16 0 -30 7 -34 16 -3 9 -6 216 -6 460 0 428 -1 444 -19 444 -30 0 -43 25 -41
82 3 82 2 86 -22 90 -20 3 -23 10 -26 60 l-3 57 -57 3 -57 3 -2 35 c-12 163
-16 200 -23 200 -4 0 -10 -6 -13 -13z"/>
</g>
</svg>
