<svg id="Слой_1" data-name="Слой 1" xmlns="http://www.w3.org/2000/svg" xmlns:xlink="http://www.w3.org/1999/xlink" viewBox="0 0 72.11 75.65"><defs><style>.cls-1{fill:none;}.cls-2{clip-path:url(#clip-path);}.cls-3{fill:#43a9ff;}</style><clipPath id="clip-path" transform="translate(0 0)"><rect class="cls-1" width="72.11" height="75.65"/></clipPath></defs><title>bell</title><g class="cls-2"><path class="cls-3" d="M48.84,47a15.52,15.52,0,0,1-3.31-9.07C45.31,32.1,40.86,30,36.78,30H35.09c-4,0-8.29,2.07-8.51,7.86A15.51,15.51,0,0,1,23.26,47a10.56,10.56,0,0,0-3.57,12.71,1.75,1.75,0,0,0,1.61,1.07H50.8a1.74,1.74,0,0,0,1.61-1.07A10.52,10.52,0,0,0,48.84,47m.71,10.28h-27a7.45,7.45,0,0,1-.2-1.7,7.06,7.06,0,0,1,3.1-5.84,1.65,1.65,0,0,0,.37-.33A19,19,0,0,0,30.07,38c.12-3,1.8-4.49,5-4.49h1.69C40.15,33.53,41.92,35,42,38a19,19,0,0,0,4.26,11.35,1.65,1.65,0,0,0,.37.33,7.06,7.06,0,0,1,3.1,5.84,6.94,6.94,0,0,1-.21,1.7" transform="translate(0 0)"/><path class="cls-3" d="M36.05,62.25A6.7,6.7,0,1,0,42.76,69a6.71,6.71,0,0,0-6.71-6.7m0,9.9A3.2,3.2,0,1,1,39.26,69a3.2,3.2,0,0,1-3.21,3.2" transform="translate(0 0)"/><path class="cls-3" d="M70.44,13.87c-2.87-.13-4.94-1-6.18-2.5a7.4,7.4,0,0,1-1.37-5c0-.32,0-.51,0-.52a1.75,1.75,0,0,0-1.42-2,1.93,1.93,0,0,0-.68,0,1.78,1.78,0,0,0-1,.86,4.8,4.8,0,0,1-.3.48,7.41,7.41,0,0,1-4.07,3.06l-.2,0V5.06C55.24.37,51.93,0,50.91,0c-3.64,0-8.76,3.75-10.13,4.81a3.68,3.68,0,0,0-1.56-.35h-5a3.69,3.69,0,0,0-1.41.28C31.25,3.58,26.29,0,22.72,0c-1,0-4.32.37-4.32,5.06V8.62a5.74,5.74,0,0,1-1.66-.11,7.37,7.37,0,0,1-4.13-3c-.2-.28-.31-.47-.32-.48a1.69,1.69,0,0,0-1-.83,1.6,1.6,0,0,0-.69,0,1.74,1.74,0,0,0-1.4,2s0,.21.05.53a7.4,7.4,0,0,1-1.3,5c-1.22,1.54-3.28,2.4-6.14,2.57a1.71,1.71,0,0,0-.86.3,1.74,1.74,0,0,0,.73,3.29c2.86.13,4.94,1,6.17,2.5a7.39,7.39,0,0,1,1.38,5c0,.32-.05.51-.05.52a1.74,1.74,0,0,0,1.42,2,1.53,1.53,0,0,0,.3,0,1.42,1.42,0,0,0,.42-.08,1.69,1.69,0,0,0,1-.82,4.09,4.09,0,0,1,.29-.47,7.43,7.43,0,0,1,4.11-3.08c1.91-.45,4.06.14,6.42,1.78a1.74,1.74,0,0,0,2.43-.43c.31-.44,1.08-4.59,2.89-5.89A7.36,7.36,0,0,1,34,18a6.9,6.9,0,0,1-1,4.73,7.75,7.75,0,0,1-4.91,2.81,1.75,1.75,0,0,0,.2,3.49h.19a11.19,11.19,0,0,0,7.37-4.26,2,2,0,0,1,.12-.19c.07.11.14.23.22.34A11.19,11.19,0,0,0,43.65,29h.17a1.75,1.75,0,0,0,.16-3.5,7.72,7.72,0,0,1-4.92-2.72A6.9,6.9,0,0,1,38,18a7.32,7.32,0,0,1,5.53.89c1.84,1.27,2.68,5.43,3,5.86a1.75,1.75,0,0,0,2.44.41c2.33-1.68,4.48-2.31,6.39-1.87a7.37,7.37,0,0,1,4.15,3,5,5,0,0,1,.3.47,1.75,1.75,0,0,0,1,.8,1.55,1.55,0,0,0,.43.07l.33,0a1.75,1.75,0,0,0,1.39-2,4.68,4.68,0,0,1-.06-.52,7.46,7.46,0,0,1,1.29-5c1.21-1.55,3.29-2.42,6.16-2.6a1.78,1.78,0,0,0,.88-.3,1.75,1.75,0,0,0-.75-3.28M21.18,20.38a9.55,9.55,0,0,0-5.35-.29,9.42,9.42,0,0,0-3.48,1.69,9.62,9.62,0,0,0-1.76-3.56A9.19,9.19,0,0,0,8.15,16.1a9,9,0,0,0,2.56-2.24,9.51,9.51,0,0,0,1.71-3.59,9.52,9.52,0,0,0,3.51,1.65,9.29,9.29,0,0,0,2,.23l.44,0v3.4c0,3.16,1.5,4.35,2.8,4.8Zm9.14-7.08c-.12.1-.27.2-.4.29a32.11,32.11,0,0,1-3.41,2.16,9.23,9.23,0,0,1-3.79,1.33c-.4,0-.82,0-.82-1.55V5.06c0-1.56.42-1.56.82-1.56,1.9,0,5.41,2.14,7.6,3.78Zm8.9-.67h-5c-.06,0-.09,0-.1,0l0-4.63a.17.17,0,0,1,.12,0h5.16v4.61s0,.05-.12.05M51.74,8v7.57c0,1.55-.42,1.55-.83,1.55a11.23,11.23,0,0,1-4.67-1.83,30.19,30.19,0,0,1-2.92-1.95v-6C45.51,5.64,49,3.5,50.91,3.5c.41,0,.83,0,.83,1.56Zm9.65,9.94a9.63,9.63,0,0,0-1.7,3.59,9.52,9.52,0,0,0-3.51-1.65,8.75,8.75,0,0,0-2.5-.2,5,5,0,0,0,1.56-4.11V11.86A9.13,9.13,0,0,0,59.76,10a9.59,9.59,0,0,0,1.75,3.56A9.26,9.26,0,0,0,64,15.66a8.94,8.94,0,0,0-2.57,2.24" transform="translate(0 0)"/></g></svg>