<svg id="Слой_1" data-name="Слой 1" xmlns="http://www.w3.org/2000/svg" xmlns:xlink="http://www.w3.org/1999/xlink" viewBox="0 0 83.53 74.52"><defs><style>.cls-1{fill:none;}.cls-2{clip-path:url(#clip-path);}.cls-3{fill:#43a9ff;}</style><clipPath id="clip-path" transform="translate(0 0)"><rect class="cls-1" width="83.53" height="74.52"/></clipPath></defs><title>branch</title><g class="cls-2"><path class="cls-3" d="M82.55,8l-2.47-1.2,1-2.85a1.75,1.75,0,1,0-3.29-1.18L76.58,6.16,52,12.74,57.63,2.6A1.75,1.75,0,0,0,54.57.89l-7.28,13a.42.42,0,0,0,0,.1L31.66,18.16l5.63-10a1.75,1.75,0,1,0-3-1.71L27,19.4a0,0,0,0,0,0,0L11.4,23.58l5.65-10.1A1.75,1.75,0,1,0,14,11.77l-7.28,13,0,.07L1.3,26.28a1.75,1.75,0,1,0,.9,3.38L21.52,24.5V40.56a1.75,1.75,0,0,0,3.5,0v-17l7.68-2a1.08,1.08,0,0,0,.24.18l12.8,7.64a1.72,1.72,0,0,0,.9.25,1.75,1.75,0,0,0,.9-3.25L37.37,20.26l14.85-4V27.47a1.75,1.75,0,0,0,3.5,0V15.36l3.12-.83,12.23,7.3a1.78,1.78,0,0,0,.9.25,1.72,1.72,0,0,0,1.5-.85,1.74,1.74,0,0,0-.6-2.4l-9.32-5.56L77.7,9.48,81,11.11a1.76,1.76,0,0,0,.77.17A1.75,1.75,0,0,0,82.55,8" transform="translate(0 0)"/><path class="cls-3" d="M24,51.64A11.44,11.44,0,1,0,35.4,63.08,11.45,11.45,0,0,0,24,51.64M24,71a7.94,7.94,0,1,1,7.94-7.94A7.95,7.95,0,0,1,24,71" transform="translate(0 0)"/><path class="cls-3" d="M23,57a5.28,5.28,0,0,0-3.88,1.53,6.76,6.76,0,0,0-1.67,4.58,1.73,1.73,0,0,0,1.74,1.69h0A1.74,1.74,0,0,0,20.92,63a3.33,3.33,0,0,1,.7-2.06A1.78,1.78,0,0,1,23,60.52,1.75,1.75,0,0,0,23,57" transform="translate(0 0)"/><path class="cls-3" d="M24.41,50.65a1.75,1.75,0,0,0,1.75-1.75V46.69a2.89,2.89,0,1,0-5.77,0V48.9a1.75,1.75,0,0,0,1.75,1.75Z" transform="translate(0 0)"/><path class="cls-3" d="M54,41.42a15.11,15.11,0,1,0,15.1,15.11A15.13,15.13,0,0,0,54,41.42m0,26.72a11.61,11.61,0,1,1,11.6-11.61A11.63,11.63,0,0,1,54,68.14" transform="translate(0 0)"/><path class="cls-3" d="M52.61,48.84a6.57,6.57,0,0,0-4.86,1.91,8.65,8.65,0,0,0-2.13,5.83,1.75,1.75,0,0,0,1.75,1.7h.05a1.75,1.75,0,0,0,1.7-1.8,5.34,5.34,0,0,1,1.13-3.29,3.13,3.13,0,0,1,2.36-.85,1.75,1.75,0,0,0,0-3.5" transform="translate(0 0)"/><path class="cls-3" d="M55.53,38.74A1.75,1.75,0,0,0,57.28,37V33.94a3.32,3.32,0,1,0-6.63,0V37a1.75,1.75,0,0,0,1.75,1.75Z" transform="translate(0 0)"/></g></svg>