<svg id="Слой_1" data-name="Слой 1" xmlns="http://www.w3.org/2000/svg" xmlns:xlink="http://www.w3.org/1999/xlink" viewBox="0 0 77.36 77.36"><defs><style>.cls-1{fill:none;}.cls-2{clip-path:url(#clip-path);}.cls-3{fill:#43a9ff;}</style><clipPath id="clip-path" transform="translate(0 0)"><rect class="cls-1" width="77.36" height="77.36"/></clipPath></defs><title>snowflake</title><g class="cls-2"><path class="cls-3" d="M75.49,37c-2.83.19-5.67.27-8.5.29l7.66-7.66a1.75,1.75,0,0,0-2.47-2.48L62.06,37.23c-1.94,0-3.86-.08-5.76-.13a17.52,17.52,0,0,0-3.95-9.66l4.27-4.27H70.54a1.75,1.75,0,0,0,0-3.5H60.12L66,13.78s0,0,.06-.07a1.87,1.87,0,0,0,.42-.83,2.83,2.83,0,0,0,0-.29.43.43,0,0,0,0-.05,1.75,1.75,0,0,0-3-1.23l-5.84,5.84V6.81a1.75,1.75,0,0,0-3.5,0V20.65L49.87,25a17.57,17.57,0,0,0-9.47-3.91h0V15l9.84-9.85A1.75,1.75,0,0,0,47.77,2.7L40.4,10.08V1.75a1.75,1.75,0,0,0-3.5,0V10L29.59,2.71a1.75,1.75,0,0,0-2.48,2.47L36.9,15v6.09h0A17.47,17.47,0,0,0,27.44,25l-4.27-4.27V6.81a1.75,1.75,0,1,0-3.5,0V17.24l-5.89-5.89a1.75,1.75,0,0,0-2.47,0,1.72,1.72,0,0,0-.5,1.44,1.79,1.79,0,0,0,.5,1l5.84,5.84H6.81a1.75,1.75,0,1,0,0,3.5H20.65L25,27.49A17.6,17.6,0,0,0,21.07,37H15L5.18,27.11a1.75,1.75,0,0,0-2.47,2.48L10.08,37H1.75A1.75,1.75,0,0,0,0,38.71H0a1.75,1.75,0,0,0,1.75,1.75H10L2.71,47.77a1.75,1.75,0,0,0,2.47,2.48L15,40.46h6.11A17.59,17.59,0,0,0,25,49.87l-4.32,4.32H6.81a1.75,1.75,0,0,0,0,3.5H17.15l-5.84,5.84a1.75,1.75,0,0,0,1.23,3,1.8,1.8,0,0,0,1-.29,1.86,1.86,0,0,0,.27-.22l5.89-5.89V70.54a1.75,1.75,0,0,0,3.5,0V56.62l4.27-4.27a17.55,17.55,0,0,0,9.46,3.94v6.1l-9.79,9.79a1.75,1.75,0,0,0,2.48,2.47l7.31-7.31v8.27h0a1.75,1.75,0,0,0,3.5,0h0V67.28l7.37,7.37a1.75,1.75,0,0,0,2.47-2.47L40.4,62.33v-6a17.48,17.48,0,0,0,9.47-3.9l4.1,4.1.22.21V70.54a1.75,1.75,0,0,0,3.5,0V60.2l5.84,5.85A1.75,1.75,0,0,0,66,63.58l-5.89-5.89H70.54a1.75,1.75,0,0,0,0-3.5H56.62l-4.27-4.27a17.57,17.57,0,0,0,3.92-9.32c2.09.06,4.23.1,6.39.12l9.52,9.53a1.75,1.75,0,0,0,2.47,0,1.76,1.76,0,0,0,0-2.48l-7-7c2.69,0,5.4-.1,8.11-.28A1.75,1.75,0,0,0,75.49,37M48.72,48.72a14.2,14.2,0,1,1,4.16-10,14.12,14.12,0,0,1-4.16,10" transform="translate(0 0)"/><path class="cls-3" d="M47.24,30.12a1.76,1.76,0,0,0-2.48,0l-6.08,6.09-6.09-6.09a1.75,1.75,0,0,0-2.47,2.48l6.08,6.08-6.08,6.08a1.75,1.75,0,0,0,1.24,3,1.74,1.74,0,0,0,1.23-.51l6.09-6.09,6.08,6.09a1.75,1.75,0,0,0,2.48-2.48l-6.09-6.08,6.09-6.08a1.76,1.76,0,0,0,0-2.48" transform="translate(0 0)"/></g></svg>