<svg id="Слой_1" data-name="Слой 1" xmlns="http://www.w3.org/2000/svg" xmlns:xlink="http://www.w3.org/1999/xlink" viewBox="0 0 80.67 76.99"><defs><style>.cls-1{fill:none;}.cls-2{clip-path:url(#clip-path);}.cls-3{fill:#43a9ff;}</style><clipPath id="clip-path" transform="translate(0 0)"><rect class="cls-1" width="80.67" height="76.99"/></clipPath></defs><title>temple</title><g class="cls-2"><path class="cls-3" d="M25.35,4.1a2,2,0,1,0-2-2,2,2,0,0,0,2,2" transform="translate(0 0)"/><path class="cls-3" d="M4.36,12.09a2,2,0,1,0-2-2,2,2,0,0,0,2,2" transform="translate(0 0)"/><path class="cls-3" d="M63.36,32.57a2,2,0,1,0,2,2,2,2,0,0,0-2-2" transform="translate(0 0)"/><path class="cls-3" d="M2,62.72a2,2,0,1,0,2,2,2,2,0,0,0-2-2" transform="translate(0 0)"/><path class="cls-3" d="M79.53,51.15l.63-.63a1.75,1.75,0,1,0-2.48-2.47l-.62.62-.63-.62A1.75,1.75,0,1,0,74,50.52l.62.63-.62.62a1.75,1.75,0,0,0,1.24,3,1.74,1.74,0,0,0,1.23-.51l.63-.63.62.62a1.74,1.74,0,0,0,2.48,0,1.75,1.75,0,0,0,0-2.47Z" transform="translate(0 0)"/><path class="cls-3" d="M20.85,21.58a2,2,0,1,0-2-2,2,2,0,0,0,2,2" transform="translate(0 0)"/><path class="cls-3" d="M66.85,10.08l-2,2a1.75,1.75,0,0,0,2.47,2.47l2-2,2,2a1.75,1.75,0,1,0,2.48-2.47l-2-2,2-2a1.75,1.75,0,1,0-2.48-2.47l-2,2-2-2a1.75,1.75,0,0,0-2.47,2.47Z" transform="translate(0 0)"/><path class="cls-3" d="M62.48,12.09a2,2,0,1,0-2-2,2,2,0,0,0,2,2" transform="translate(0 0)"/><path class="cls-3" d="M76.11,12.09a2,2,0,1,0-2-2,2,2,0,0,0,2,2" transform="translate(0 0)"/><path class="cls-3" d="M69.32,14.91a2,2,0,1,0,2,2,2,2,0,0,0-2-2" transform="translate(0 0)"/><path class="cls-3" d="M69.32,5.26a2,2,0,1,0-2-2,2,2,0,0,0,2,2" transform="translate(0 0)"/><path class="cls-3" d="M8.24,43.75a1.75,1.75,0,0,0,3.5,0V41.24a4.83,4.83,0,0,0,2.61-2.66h2.56a1.75,1.75,0,0,0,0-3.5H14.35a4.78,4.78,0,0,0-2.61-2.65V29.91a1.75,1.75,0,0,0-3.5,0v2.47a4.84,4.84,0,0,0-2.75,2.7H3.07a1.75,1.75,0,0,0,0,3.5H5.49a4.78,4.78,0,0,0,2.75,2.7Zm1.68-8.19a1.27,1.27,0,1,1-1.27,1.27,1.27,1.27,0,0,1,1.27-1.27" transform="translate(0 0)"/><path class="cls-3" d="M73,68.58a14.65,14.65,0,0,1-7.19,4.22V54.13a1.75,1.75,0,0,0-1.75-1.75H52.35v-9.8a1.76,1.76,0,0,0-1.75-1.75H48.78V29.28a1.74,1.74,0,0,0-.2-.79v0L42.15,14.75V9.07h2.08a1.75,1.75,0,0,0,0-3.5H42.15V1.75a1.75,1.75,0,0,0-3.5,0V5.57H36.56a1.75,1.75,0,0,0,0,3.5h2.09v5.68a2,2,0,0,0,0,.25l-6.3,13.47a1.52,1.52,0,0,0-.12.4,1.35,1.35,0,0,0-.06.41V40.83H30.78A1.76,1.76,0,0,0,29,42.58v9.8H17.38a1.76,1.76,0,0,0-1.75,1.75V68.26a46.52,46.52,0,0,0-6.44,1.63,1.75,1.75,0,0,0,1.17,3.3c.16-.06,16.39-5.68,33.18.42A49.25,49.25,0,0,0,60.16,77c6.51,0,11.73-2,15.44-6A1.75,1.75,0,0,0,73,68.58m-28.76-41H36.68l3.79-8.12ZM35.69,31h9.59v9.8H35.69Zm-3.16,13.3H48.85v8.05H32.53Zm9.24,25c-.84-.25-1.68-.47-2.51-.67V62.85h2.51Zm1.75-10h-6a1.75,1.75,0,0,0-1.75,1.75V68c-1.09-.19-2.17-.33-3.23-.44V55.88H48.85V71.67c-1.23-.36-2.43-.75-3.58-1.16V61.1a1.75,1.75,0,0,0-1.75-1.75M19.13,67.72V55.88H29V67.29a60.14,60.14,0,0,0-9.9.43m33.22,4.84V55.88h10V73.4a34.08,34.08,0,0,1-10-.84" transform="translate(0 0)"/><path class="cls-3" d="M40.47,33.18a2.71,2.71,0,1,0,2.71,2.71,2.71,2.71,0,0,0-2.71-2.71" transform="translate(0 0)"/></g></svg>